<?xml version="1.0" standalone="no"?>
<!DOCTYPE svg PUBLIC "-//W3C//DTD SVG 20010904//EN"
 "http://www.w3.org/TR/2001/REC-SVG-20010904/DTD/svg10.dtd">
<svg version="1.0" xmlns="http://www.w3.org/2000/svg"
 width="512.000000pt" height="512.000000pt" viewBox="0 0 512.000000 512.000000"
 preserveAspectRatio="xMidYMid meet">
<metadata>
Created by potrace 1.11, written by Peter Selinger 2001-2013
</metadata>
<g transform="translate(0.000000,512.000000) scale(0.100000,-0.100000)"
fill="#000000" stroke="none">
<path d="M744 5052 c-48 -31 -76 -76 -76 -125 0 -34 24 -88 125 -287 68 -135
188 -370 266 -523 77 -153 141 -289 141 -302 0 -12 -6 -28 -13 -34 -9 -7 -149
-11 -454 -11 -384 -1 -447 -3 -484 -17 -117 -44 -197 -136 -216 -249 -5 -27
-8 -724 -8 -1549 1 -1228 4 -1507 15 -1540 35 -105 132 -198 231 -221 19 -4
134 -8 257 -9 249 -1 251 -1 259 -72 2 -21 11 -44 20 -51 12 -8 71 -12 210
-12 180 0 194 1 213 20 11 11 20 33 20 48 0 16 6 37 14 48 14 19 40 19 1287
19 853 0 1279 -3 1293 -10 15 -7 23 -24 27 -54 9 -69 16 -71 236 -71 181 0
194 1 210 20 10 11 18 34 19 51 2 61 10 63 261 64 155 1 241 5 268 14 91 29
172 106 210 201 18 43 19 117 20 1535 0 820 -3 1510 -7 1535 -20 112 -102 217
-211 269 l-62 30 -1479 1 c-1071 0 -1483 3 -1493 11 -7 6 -13 21 -13 33 -1 21
167 365 183 377 5 3 8 9 8 13 -1 3 23 55 52 114 30 59 105 208 167 332 128
254 138 291 98 350 -32 47 -82 71 -136 65 -42 -4 -55 -11 -93 -45 -9 -8 -57
-96 -105 -195 -49 -99 -92 -181 -96 -183 -5 -2 -8 -9 -8 -14 0 -15 -183 -382
-192 -386 -5 -2 -8 -8 -8 -14 0 -25 -156 -319 -172 -324 -39 -12 -54 9 -163
229 -60 122 -109 224 -110 227 0 3 -4 11 -9 18 -4 7 -24 46 -43 85 -19 40 -39
81 -45 91 -5 11 -50 101 -99 200 -50 100 -98 197 -109 216 -44 83 -143 122
-206 82z"/>
</g>
</svg>
